<svg width="65" height="65" viewBox="0 0 65 65" fill="none" xmlns="http://www.w3.org/2000/svg">
<path d="M8.12499 13.5413V10.833C7.4067 10.833 6.71782 11.1183 6.20991 11.6263C5.702 12.1342 5.41666 12.823 5.41666 13.5413H8.12499ZM56.875 13.5413H59.5833C59.5833 12.823 59.298 12.1342 58.7901 11.6263C58.2822 11.1183 57.5933 10.833 56.875 10.833V13.5413ZM8.12499 16.2497H56.875V10.833H8.12499V16.2497ZM54.1667 13.5413V46.0413H59.5833V13.5413H54.1667ZM51.4583 48.7497H13.5417V54.1663H51.4583V48.7497ZM10.8333 46.0413V13.5413H5.41666V46.0413H10.8333ZM13.5417 48.7497C12.8234 48.7497 12.1345 48.4643 11.6266 47.9564C11.1187 47.4485 10.8333 46.7596 10.8333 46.0413H5.41666C5.41666 48.1962 6.27268 50.2629 7.79641 51.7866C9.32015 53.3103 11.3868 54.1663 13.5417 54.1663V48.7497ZM54.1667 46.0413C54.1667 46.7596 53.8813 47.4485 53.3734 47.9564C52.8655 48.4643 52.1766 48.7497 51.4583 48.7497V54.1663C53.6132 54.1663 55.6798 53.3103 57.2036 51.7866C58.7273 50.2629 59.5833 48.1962 59.5833 46.0413H54.1667Z" fill="#CF0E0E"/>
<path d="M8.125 13.541L32.5 37.916L56.875 13.541" stroke="#CF0E0E" stroke-width="2" stroke-linecap="round" stroke-linejoin="round"/>
</svg>
