<svg width="52" height="51" viewBox="0 0 52 51" fill="none" xmlns="http://www.w3.org/2000/svg">
<g clip-path="url(#clip0_15_53)">
<path d="M45.5 11.7937V23.5875L52 20.4V15.9375L45.5 11.7937ZM6.5 12.1125L0 15.9375V20.7188L6.5 23.9062V12.1125ZM36.4 6.375L26 0L15.6 6.375H36.4ZM42.25 9.5625H9.75V25.1812L20.8 30.6L26 26.775L31.2 30.6L42.25 25.1812V9.5625ZM52 24.225L34.125 32.8312L52 46.8563V24.225ZM26 30.6L0 51H52L26 30.6ZM17.875 32.8312L0 24.225V46.8563L17.875 32.8312Z" fill="#AB6A6A"/>
</g>
<defs>
<clipPath id="clip0_15_53">
<rect width="52" height="51" fill="white"/>
</clipPath>
</defs>
</svg>
